<svg width="61" height="61" viewBox="0 0 61 61" fill="none" xmlns="http://www.w3.org/2000/svg">
<path d="M30.3 59.1C47.3 60.8 59.1 46.2058 59.1 30.3C60.8 13.8 48.3 1.5 30.3 1.5C14.3942 1.5 4.29999 11.3 1.5 30.3C1.5 46.2058 14.3942 59.1 30.3 59.1Z" stroke="#8F4E1A" stroke-width="3"/>
<path d="M29.3201 51.8C42.32 52.8 51.3 41.8031 51.3 30.0879C51.3 18.3728 45.3 9.30005 29.3201 9.30005C17.7221 9.30005 9.30005 18.3728 9.30005 30.0879C9.30005 43.8051 17.7221 51.8 29.3201 51.8Z" stroke="#8F4E1A" stroke-width="2.7"/>
<path d="M30.3 44.8C40.4 43.5 44.1 38.6529 44.1 30.7C44.1 22.7471 37.6529 16.3 29.7 16.3C20.8 15.3 15.3 22.7471 15.3 30.7C15.3 38.6529 21.4729 45.9361 30.3 44.8Z" stroke="#8F4E1A" stroke-width="2"/>
<path d="M29.8 37.3C33.3899 37.3 36.3 34.4376 36.3 30.9066C36.3 27.3756 33.3899 24.3 29.8 24.3C26.2102 24.3 23.3 27.3756 23.3 30.9066C23.3 34.4376 26.2102 37.3 29.8 37.3Z" stroke="#8F4E1A" stroke-width="2.4"/>
</svg>
